<mxfile host="Electron" modified="2024-09-22T07:35:01.296Z" agent="Mozilla/5.0 (Windows NT 10.0; Win64; x64) AppleWebKit/537.36 (KHTML, like Gecko) draw.io/22.0.3 Chrome/114.0.5735.289 Electron/25.8.4 Safari/537.36" etag="3Ctmq3x1vVJpckvV9alQ" version="22.0.3" type="device">
  <diagram name="第 1 页" id="EzfMsbHPbNIacxq7UXh_">
    <mxGraphModel dx="2625" dy="1678" grid="0" gridSize="10" guides="1" tooltips="1" connect="1" arrows="1" fold="1" page="1" pageScale="1" pageWidth="3300" pageHeight="4681" math="0" shadow="0">
      <root>
        <mxCell id="0" />
        <mxCell id="1" parent="0" />
        <mxCell id="HIZ06WJK8Xc8VZZ9h2d8-2" value="Use" style="endArrow=open;endSize=12;dashed=1;html=1;rounded=0;" parent="1" edge="1">
          <mxGeometry width="160" relative="1" as="geometry">
            <mxPoint x="1705.75" y="555" as="sourcePoint" />
            <mxPoint x="1865.75" y="555" as="targetPoint" />
          </mxGeometry>
        </mxCell>
        <mxCell id="HIZ06WJK8Xc8VZZ9h2d8-3" value="&lt;font style=&quot;font-size: 15px;&quot;&gt;dependency：依赖使用&lt;br&gt;&lt;b&gt;虚线箭头&lt;/b&gt;&lt;br&gt;&lt;/font&gt;" style="text;html=1;align=center;verticalAlign=middle;resizable=0;points=[];autosize=1;strokeColor=none;fillColor=none;" parent="1" vertex="1">
          <mxGeometry x="1699.75" y="566" width="175" height="48" as="geometry" />
        </mxCell>
        <mxCell id="HIZ06WJK8Xc8VZZ9h2d8-8" value="&lt;font style=&quot;font-size: 15px;&quot;&gt;association：表示关联&lt;br&gt;&lt;b&gt;实线箭头&lt;/b&gt;&lt;/font&gt;" style="text;html=1;align=center;verticalAlign=middle;resizable=0;points=[];autosize=1;strokeColor=none;fillColor=none;" parent="1" vertex="1">
          <mxGeometry x="1701.75" y="726" width="168" height="48" as="geometry" />
        </mxCell>
        <mxCell id="HIZ06WJK8Xc8VZZ9h2d8-11" value="Extends" style="endArrow=block;endSize=16;endFill=0;html=1;rounded=0;movable=1;resizable=1;rotatable=1;deletable=1;editable=1;locked=0;connectable=1;" parent="1" edge="1">
          <mxGeometry width="160" relative="1" as="geometry">
            <mxPoint x="1695.25" y="858" as="sourcePoint" />
            <mxPoint x="1853.25" y="856" as="targetPoint" />
          </mxGeometry>
        </mxCell>
        <mxCell id="HIZ06WJK8Xc8VZZ9h2d8-13" value="&lt;p style=&quot;line-height: 140%;&quot;&gt;&lt;font style=&quot;font-size: 15px;&quot;&gt;generalization：表示泛化（继承）&lt;br&gt;&lt;b&gt;实线空心三角箭头&lt;/b&gt;&lt;/font&gt;&lt;/p&gt;" style="text;html=1;align=center;verticalAlign=middle;resizable=1;points=[];autosize=1;strokeColor=none;fillColor=none;movable=1;rotatable=1;deletable=1;editable=1;locked=0;connectable=1;" parent="1" vertex="1">
          <mxGeometry x="1655.75" y="871" width="246" height="71" as="geometry" />
        </mxCell>
        <mxCell id="HIZ06WJK8Xc8VZZ9h2d8-19" value="&lt;font style=&quot;font-size: 15px;&quot;&gt;implementation / realization：表示实现&lt;br&gt;&lt;b&gt;虚线空心三角箭头&lt;/b&gt;&lt;br&gt;&lt;/font&gt;" style="text;html=1;align=center;verticalAlign=middle;resizable=1;points=[];autosize=1;strokeColor=none;fillColor=none;movable=1;rotatable=1;deletable=1;editable=1;locked=0;connectable=1;" parent="1" vertex="1">
          <mxGeometry x="1642.75" y="1020" width="276" height="48" as="geometry" />
        </mxCell>
        <mxCell id="HIZ06WJK8Xc8VZZ9h2d8-21" value="1" style="endArrow=open;html=1;endSize=12;startArrow=diamondThin;startSize=14;startFill=0;edgeStyle=orthogonalEdgeStyle;align=left;verticalAlign=bottom;rounded=0;" parent="1" edge="1">
          <mxGeometry x="-1" y="3" relative="1" as="geometry">
            <mxPoint x="1698.75" y="1152" as="sourcePoint" />
            <mxPoint x="1858.75" y="1152" as="targetPoint" />
          </mxGeometry>
        </mxCell>
        <mxCell id="HIZ06WJK8Xc8VZZ9h2d8-22" value="" style="endArrow=block;dashed=1;endFill=0;endSize=12;html=1;rounded=0;movable=1;resizable=1;rotatable=1;deletable=1;editable=1;locked=0;connectable=1;" parent="1" edge="1">
          <mxGeometry width="160" relative="1" as="geometry">
            <mxPoint x="1698.75" y="994" as="sourcePoint" />
            <mxPoint x="1858.75" y="994" as="targetPoint" />
          </mxGeometry>
        </mxCell>
        <mxCell id="HIZ06WJK8Xc8VZZ9h2d8-29" value="" style="rounded=0;whiteSpace=wrap;html=1;fillColor=none;movable=1;resizable=1;rotatable=1;deletable=1;editable=1;locked=0;connectable=1;" parent="1" vertex="1">
          <mxGeometry x="1565.25" y="814" width="437" height="123" as="geometry" />
        </mxCell>
        <mxCell id="HIZ06WJK8Xc8VZZ9h2d8-23" value="1" style="endArrow=open;html=1;endSize=12;startArrow=diamondThin;startSize=14;startFill=1;edgeStyle=orthogonalEdgeStyle;align=left;verticalAlign=bottom;rounded=0;movable=1;resizable=1;rotatable=1;deletable=1;editable=1;locked=0;connectable=1;" parent="1" edge="1">
          <mxGeometry x="-1" y="3" relative="1" as="geometry">
            <mxPoint x="1698.75" y="1301" as="sourcePoint" />
            <mxPoint x="1858.75" y="1301" as="targetPoint" />
          </mxGeometry>
        </mxCell>
        <mxCell id="HIZ06WJK8Xc8VZZ9h2d8-26" value="&lt;p style=&quot;line-height: 170%;&quot;&gt;&lt;font style=&quot;font-size: 15px;&quot;&gt;aggregation：表示聚合&lt;br&gt;&lt;b&gt;实线尾部为空心菱形箭头&lt;/b&gt;&lt;br&gt;&lt;/font&gt;&lt;/p&gt;" style="text;html=1;align=center;verticalAlign=middle;resizable=0;points=[];autosize=1;strokeColor=none;fillColor=none;" parent="1" vertex="1">
          <mxGeometry x="1687.25" y="1153" width="183" height="78" as="geometry" />
        </mxCell>
        <mxCell id="HIZ06WJK8Xc8VZZ9h2d8-27" value="&lt;p style=&quot;line-height: 150%;&quot;&gt;&lt;font style=&quot;font-size: 15px;&quot;&gt;composite：表示组合&lt;br&gt;&lt;b&gt;实线尾部为实心菱形箭头&lt;/b&gt;&lt;/font&gt;&lt;br&gt;&lt;/p&gt;" style="text;html=1;align=center;verticalAlign=middle;resizable=1;points=[];autosize=1;strokeColor=none;fillColor=none;movable=1;rotatable=1;deletable=1;editable=1;locked=0;connectable=1;" parent="1" vertex="1">
          <mxGeometry x="1691.25" y="1321" width="183" height="74" as="geometry" />
        </mxCell>
        <mxCell id="HIZ06WJK8Xc8VZZ9h2d8-30" value="" style="rounded=0;whiteSpace=wrap;html=1;fillColor=none;movable=1;resizable=1;rotatable=1;deletable=1;editable=1;locked=0;connectable=1;" parent="1" vertex="1">
          <mxGeometry x="1563.75" y="962" width="438" height="117" as="geometry" />
        </mxCell>
        <mxCell id="HIZ06WJK8Xc8VZZ9h2d8-31" value="" style="rounded=0;whiteSpace=wrap;html=1;fillColor=none;movable=1;resizable=1;rotatable=1;deletable=1;editable=1;locked=0;connectable=1;" parent="1" vertex="1">
          <mxGeometry x="1563.75" y="1110" width="438" height="125" as="geometry" />
        </mxCell>
        <mxCell id="HIZ06WJK8Xc8VZZ9h2d8-32" value="" style="rounded=0;whiteSpace=wrap;html=1;fillColor=none;movable=1;resizable=1;rotatable=1;deletable=1;editable=1;locked=0;connectable=1;" parent="1" vertex="1">
          <mxGeometry x="1562.25" y="1268" width="441" height="123" as="geometry" />
        </mxCell>
        <mxCell id="HIZ06WJK8Xc8VZZ9h2d8-33" value="" style="rounded=0;whiteSpace=wrap;html=1;fillColor=none;movable=1;resizable=1;rotatable=1;deletable=1;editable=1;locked=0;connectable=1;" parent="1" vertex="1">
          <mxGeometry x="1566.75" y="516" width="437" height="122" as="geometry" />
        </mxCell>
        <mxCell id="HIZ06WJK8Xc8VZZ9h2d8-41" value="" style="rounded=0;whiteSpace=wrap;html=1;fillColor=none;movable=1;resizable=1;rotatable=1;deletable=1;editable=1;locked=0;connectable=1;" parent="1" vertex="1">
          <mxGeometry x="1566.25" y="670" width="436" height="118" as="geometry" />
        </mxCell>
        <mxCell id="HIZ06WJK8Xc8VZZ9h2d8-43" value="" style="endArrow=open;endFill=1;endSize=12;html=1;rounded=0;" parent="1" edge="1">
          <mxGeometry width="160" relative="1" as="geometry">
            <mxPoint x="1707.75" y="708.5" as="sourcePoint" />
            <mxPoint x="1867.75" y="708.5" as="targetPoint" />
          </mxGeometry>
        </mxCell>
        <mxCell id="HIZ06WJK8Xc8VZZ9h2d8-50" value="" style="whiteSpace=wrap;html=1;aspect=fixed;align=center;verticalAlign=middle;fontFamily=Helvetica;fontSize=12;fontColor=default;fillColor=none;gradientColor=none;movable=1;resizable=1;rotatable=1;deletable=1;editable=1;locked=0;connectable=1;" parent="1" vertex="1">
          <mxGeometry x="1295" y="457" width="981.5" height="981.5" as="geometry" />
        </mxCell>
      </root>
    </mxGraphModel>
  </diagram>
</mxfile>
